<svg xmlns="http://www.w3.org/2000/svg" width="18" height="18" viewBox="0 0 24 24" fill="white">
  <path d="M19.14,12.94a7.43,7.43,0,0,0,.05-.94,7.43,7.43,0,0,0-.05-.94l2.11-1.65a.5.5,0,0,0,.12-.64l-2-3.46a.5.5,0,0,0-.6-.22l-2.49,1a7.3,7.3,0,0,0-1.63-.94l-.38-2.65A.5.5,0,0,0,13.79,2H10.21a.5.5,0,0,0-.49.41L9.34,5.06a7.3,7.3,0,0,0-1.63.94l-2.49-1a.5.5,0,0,0-.6.22l-2,3.46a.5.5,0,0,0,.12.64L4.86,11.06a7.43,7.43,0,0,0-.05.94,7.43,7.43,0,0,0,.05.94L2.75,14.59a.5.5,0,0,0-.12.64l2,3.46a.5.5,0,0,0,.6.22l2.49-1a7.3,7.3,0,0,0,1.63.94l.38,2.65a.5.5,0,0,0,.49.41h3.58a.5.5,0,0,0,.49-.41l.38-2.65a7.3,7.3,0,0,0,1.63-.94l2.49,1a.5.5,0,0,0,.6-.22l2-3.46a.5.5,0,0,0-.12-.64ZM12,15.5A3.5,3.5,0,1,1,15.5,12,3.5,3.5,0,0,1,12,15.5Z"></path>
</svg>
